<svg width="20" height="20" viewBox="0 0 20 20" fill="none" xmlns="http://www.w3.org/2000/svg">
<g id="gridicons:user">
<path id="Vector" d="M9.9987 3.33325C10.8828 3.33325 11.7306 3.68444 12.3557 4.30956C12.9808 4.93468 13.332 5.78253 13.332 6.66659C13.332 7.55064 12.9808 8.39849 12.3557 9.02361C11.7306 9.64873 10.8828 9.99992 9.9987 9.99992C9.11465 9.99992 8.2668 9.64873 7.64168 9.02361C7.01656 8.39849 6.66537 7.55064 6.66537 6.66659C6.66537 5.78253 7.01656 4.93468 7.64168 4.30956C8.2668 3.68444 9.11465 3.33325 9.9987 3.33325ZM9.9987 16.6666C9.9987 16.6666 16.6654 16.6666 16.6654 14.9999C16.6654 12.9999 13.4154 10.8333 9.9987 10.8333C6.58203 10.8333 3.33203 12.9999 3.33203 14.9999C3.33203 16.6666 9.9987 16.6666 9.9987 16.6666Z" fill="#85AA9F"/>
</g>
</svg>
